<?xml version="1.0" encoding="utf-8"?>
<!-- Generator: Adobe Illustrator 20.0.0, SVG Export Plug-In . SVG Version: 6.00 Build 0)  -->
<svg version="1.1" id="图层_1" xmlns="http://www.w3.org/2000/svg" xmlns:xlink="http://www.w3.org/1999/xlink" x="0px" y="0px"
	 viewBox="0 0 960 560" style="enable-background:new 0 0 960 560;" xml:space="preserve">
<style type="text/css">
	.st0{fill:none;stroke:#000000;stroke-miterlimit:10;}
</style>
<path class="st0" d="M468.3,163.8l11.7,2.8h11l8.7-1.7l5.1-5.8l3.8-7.3V140v-15l-6.8-6.7l-6-5.1l-7.4-3.8H480l-11.9,6.8l5.6-10.7
	l-2-7.3l-3.6-7.1l-9.8-3.8H449h-11l-4.9,6.2l-4.6,8v6.3v14l7.2,9.7l4.7,2.7L419,127l-18-7.4l-16.7-2.1H372l-14.3-1.2l-10,0.7l-4,6.7
	l6,13.3l3.3,9.3l16.7,20.2l16.7,6.6l14.7,3.4h15l-42-6.2l14.7,11l8,5.7l6.3,4.7l5.7,3l-0.3,4.3l0.3,12l-3.3,12l-3.7,7.3l-4.3,4.7
	l-7.3,7c0,0-7.3,3.3-8.7,3.9c-1.3,0.7-12.7,8.6-12.7,8.6H359l-15.3,2.8c0,0-13.3-2-16.3-2s-18.7-3.7-18.7-3.7s9.3,12,9.7,13
	c0.3,1,7.7,7.7,8.7,8.3s17.3,7,17.3,7l12.7,4.6l13.3,1.9h7.7l13.3-5.2c0,0,5.7,0.7,6.7-1.3s10.6-11,10.6-11l11.8-9l-39.7,31.7
	l-14.3,21l-10,18.7l-2.7,18.3c0,0-1.3,16-1.3,17s3.3,15.3,3.3,15.3l5.7,16l6.7,12.3l4.7,8L383,421l11.3,3l-32.7-6.3l-16,3.7
	L326,431.7l-3.7,5.3l70-3.3L430,437l23.3-4l20.7-11l20.7,6l11-4.3l14.3-12l8.7-17.3l4-34l-14-30.3L504,311l-15.3-15.3l-14.3-17.3
	l-5.3-20l0.3-15l5.7-18.6l18.7-12.3H508l-18.7-0.5l-18.7,17l-3.7,17.3l1.7,21.7l11.3,22.3l13.3,13l17.7,20.3l14.7,27l1.7,40l-8.3,17
	l-14.3,11.7l-13.3-1l-8.7-1.3l0.7-6.3l6-9.7l0.3-35.7l-11.3-25L466,323l-13.3-36.7l2-31.3l9-32.7L470,196l-0.3-20l-2-17.3l22,11.7
	l22-16.3"/>
</svg>
